<svg width="35" height="28" viewBox="0 0 35 28" fill="none" xmlns="http://www.w3.org/2000/svg">
<path d="M9.11526 27.0001C10.7084 27.0001 12 25.7783 12 24.2712C12 22.764 10.7084 21.5422 9.11526 21.5422C7.52207 21.5422 6.23053 22.764 6.23053 24.2712C6.23053 25.7783 7.52207 27.0001 9.11526 27.0001Z" stroke="black" stroke-width="2" stroke-miterlimit="10"/>
<path d="M1.09509 1.17993L12.7291 11.5859" stroke="black" stroke-width="2" stroke-miterlimit="10"/>
<path d="M1.22192 11.7059L12.5389 1" stroke="black" stroke-width="2" stroke-miterlimit="10"/>
<path d="M15.5187 1.80981H19.6715C21.3833 1.80981 22.7464 3.12931 22.7464 4.7187V21.4523C22.7464 23.0717 21.3516 24.3612 19.6715 24.3612H12.5706H17.7378H23.7608" stroke="black" stroke-width="2" stroke-miterlimit="10"/>
<path d="M6.57925 24.3611H4.07493C2.36311 24.3611 1 23.0416 1 21.4522V14.105" stroke="black" stroke-width="2" stroke-miterlimit="10"/>
<path d="M25.6311 27.0001C27.2243 27.0001 28.5159 25.7783 28.5159 24.2712C28.5159 22.764 27.2243 21.5422 25.6311 21.5422C24.0379 21.5422 22.7464 22.764 22.7464 24.2712C22.7464 25.7783 24.0379 27.0001 25.6311 27.0001Z" stroke="black" stroke-width="2" stroke-miterlimit="10"/>
<path d="M23.3487 24.451H23.2853C23 24.451 22.7464 24.2411 22.7464 23.9412V16.4141C22.7464 16.1442 22.9683 15.9043 23.2853 15.9043H33.4611C33.7464 15.9043 34 16.1142 34 16.4141V23.9412C34 24.2111 33.7781 24.451 33.4611 24.451H27.8818" stroke="black" stroke-width="2" stroke-miterlimit="10"/>
<path d="M22.4928 6.90776C23.1585 6.87777 23.8242 6.99773 24.4265 7.3276L32.1297 11.376C33.2709 11.9758 33.9683 13.1154 33.9683 14.3449V18.9931" stroke="black" stroke-width="2" stroke-miterlimit="10"/>
</svg>
