<svg width="35" height="28" viewBox="0 0 35 28" fill="none" xmlns="http://www.w3.org/2000/svg">
<path d="M9.11525 27.0001C10.7084 27.0001 12 25.742 12 24.1901C12 22.6382 10.7084 21.3801 9.11525 21.3801C7.52206 21.3801 6.23053 22.6382 6.23053 24.1901C6.23053 25.742 7.52206 27.0001 9.11525 27.0001Z" stroke="black" stroke-width="2" stroke-miterlimit="10"/>
<path d="M15.5187 1.03076H19.6715C21.3833 1.03076 22.7464 2.38943 22.7464 4.02601V21.2564C22.7464 22.9239 21.3516 24.2517 19.6715 24.2517H12.6023H17.7694H23.7925" stroke="black" stroke-width="2" stroke-miterlimit="10"/>
<path d="M6.57925 24.2825H4.07493C2.36311 24.2825 1 22.9238 1 21.2872V13.7219" stroke="black" stroke-width="2" stroke-miterlimit="10"/>
<path d="M25.6628 27.0001C27.256 27.0001 28.5476 25.742 28.5476 24.1901C28.5476 22.6382 27.256 21.3801 25.6628 21.3801C24.0696 21.3801 22.7781 22.6382 22.7781 24.1901C22.7781 25.742 24.0696 27.0001 25.6628 27.0001Z" stroke="black" stroke-width="2" stroke-miterlimit="10"/>
<path d="M23.3487 24.3752H23.2853C23 24.3752 22.7464 24.159 22.7464 23.8502V16.0996C22.7464 15.8217 22.9683 15.5747 23.2853 15.5747H33.4611C33.7464 15.5747 34 15.7909 34 16.0996V23.8502C34 24.1282 33.7781 24.3752 33.4611 24.3752H27.9135" stroke="black" stroke-width="2" stroke-miterlimit="10"/>
<path d="M22.4928 6.31121C23.1585 6.28033 23.8242 6.40385 24.4265 6.74352L32.098 10.9122C33.2392 11.5297 33.9366 12.7031 33.9366 13.9692V18.7554" stroke="black" stroke-width="2" stroke-miterlimit="10"/>
<path d="M7.65705 12.7957C11.001 12.7957 13.7118 10.1552 13.7118 6.89786C13.7118 3.64056 11.001 1 7.65705 1C4.3131 1 1.60229 3.64056 1.60229 6.89786C1.60229 10.1552 4.3131 12.7957 7.65705 12.7957Z" stroke="black" stroke-width="2" stroke-miterlimit="10"/>
<path d="M7.65704 3.19263L7.72044 7.20688" stroke="black" stroke-miterlimit="10"/>
<path d="M5.56485 5.26147L7.87897 7.39212" stroke="black" stroke-miterlimit="10"/>
<path d="M7.65706 7.26849C7.76211 7.26849 7.84726 7.17171 7.84726 7.05233C7.84726 6.93296 7.76211 6.83618 7.65706 6.83618C7.55202 6.83618 7.46686 6.93296 7.46686 7.05233C7.46686 7.17171 7.55202 7.26849 7.65706 7.26849Z" fill="black" stroke="black" stroke-miterlimit="10"/>
</svg>
