<svg width="18" height="18" viewBox="0 0 18 18" fill="none" xmlns="http://www.w3.org/2000/svg">
<path d="M9 18C13.9706 18 18 13.9706 18 9C18 4.02944 13.9706 0 9 0C4.02944 0 0 4.02944 0 9C0 13.9706 4.02944 18 9 18Z" fill="url(#paint0_linear_67_454)"/>
<path d="M3.74567 8.92193L9.80637 6.42482C10.4046 6.1647 12.4335 5.33233 12.4335 5.33233C12.4335 5.33233 13.3699 4.96817 13.2919 5.85256C13.2659 6.21672 13.0578 7.49129 12.8497 8.8699L12.1994 12.9537C12.1994 12.9537 12.1474 13.552 11.7052 13.656C11.263 13.7601 10.5347 13.2919 10.4046 13.1878C10.3006 13.1098 8.45376 11.9393 7.77746 11.367C7.59538 11.2109 7.38729 10.8988 7.80347 10.5346C8.73989 9.67626 9.85839 8.60979 10.5347 7.93349C10.8468 7.62135 11.159 6.89302 9.85839 7.77742L6.19076 10.2485C6.19076 10.2485 5.77457 10.5086 4.99422 10.2745C4.21388 10.0404 3.30347 9.72829 3.30347 9.72829C3.30347 9.72829 2.67919 9.33811 3.74567 8.92193Z" fill="white"/>
<defs>
<linearGradient id="paint0_linear_67_454" x1="12.0007" y1="3.00069" x2="7.50069" y2="13.5" gradientUnits="userSpaceOnUse">
<stop stop-color="#37AEE2"/>
<stop offset="1" stop-color="#1E96C8"/>
</linearGradient>
</defs>
</svg>
