<svg width="32" height="32" viewBox="0 0 32 32" fill="none" xmlns="http://www.w3.org/2000/svg">
<path d="M16 32C7.1776 32 0 24.8224 0 16C0 7.1776 7.1776 0 16 0C24.8224 0 32 7.1776 32 16C32 24.8224 24.8224 32 16 32ZM16 3.2C8.9424 3.2 3.2 8.9424 3.2 16C3.2 23.0576 8.9424 28.8 16 28.8C23.0576 28.8 28.8 23.0576 28.8 16C28.8 8.9424 23.0576 3.2 16 3.2Z" fill="black"/>
<path d="M14.6544 23.8848L8.1856 17.416L11.0128 14.5872L14.144 17.7168L20.7712 8.4384L24.0272 10.7632L14.6544 23.8848Z" fill="black"/>
</svg>
