<svg width="20" height="20" viewBox="0 0 20 20" fill="none" xmlns="http://www.w3.org/2000/svg">
<path d="M10 0.000976562C4.486 0.000976562 0 4.48698 0 10.001C0 15.515 4.486 20.001 10 20.001C15.514 20.001 20 15.515 20 10.001C20 4.48698 15.514 0.000976562 10 0.000976562ZM10 18.001C5.589 18.001 2 14.412 2 10.001C2 5.58998 5.589 2.00098 10 2.00098C14.411 2.00098 18 5.58998 18 10.001C18 14.412 14.411 18.001 10 18.001Z" fill="#212121"/>
<path d="M12.293 6.29398L10 8.58698L7.707 6.29398L6.293 7.70798L8.586 10.001L6.293 12.294L7.707 13.708L10 11.415L12.293 13.708L13.707 12.294L11.414 10.001L13.707 7.70798L12.293 6.29398Z" fill="#212121"/>
</svg>
