<svg width="35" height="28" viewBox="0 0 35 28" fill="none" xmlns="http://www.w3.org/2000/svg">
<path d="M9.59245 26.9997C11.1571 26.9997 12.4255 25.842 12.4255 24.4139C12.4255 22.9858 11.1571 21.8281 9.59245 21.8281C8.02782 21.8281 6.75943 22.9858 6.75943 24.4139C6.75943 25.842 8.02782 26.9997 9.59245 26.9997Z" stroke="black" stroke-width="2" stroke-miterlimit="10"/>
<path d="M18.6208 3.10254H19.9594C21.6406 3.10254 22.9792 4.35281 22.9792 5.85882V21.7146C22.9792 23.249 21.6094 24.4708 19.9594 24.4708H12.9858H18.0604H23.9755" stroke="black" stroke-width="2" stroke-miterlimit="10"/>
<path d="M7.10189 24.471H4.64245C2.96132 24.471 1.62264 23.2207 1.62264 21.7147V11.4568" stroke="black" stroke-width="2" stroke-miterlimit="10"/>
<path d="M25.8123 26.9997C27.3769 26.9997 28.6453 25.842 28.6453 24.4139C28.6453 22.9858 27.3769 21.8281 25.8123 21.8281C24.2476 21.8281 22.9792 22.9858 22.9792 24.4139C22.9792 25.842 24.2476 26.9997 25.8123 26.9997Z" stroke="black" stroke-width="2" stroke-miterlimit="10"/>
<path d="M23.5396 24.5847H23.4774C23.1972 24.5847 22.9481 24.3858 22.9481 24.1016V16.9694C22.9481 16.7136 23.166 16.4863 23.4774 16.4863H33.4708C33.7509 16.4863 34 16.6852 34 16.9694V24.1016C34 24.3574 33.7821 24.5847 33.4708 24.5847H27.9915" stroke="black" stroke-width="2" stroke-miterlimit="10"/>
<path d="M22.7302 7.93341C23.384 7.90499 24.0377 8.01865 24.6292 8.33122L32.1632 12.1673C33.284 12.7356 33.9689 13.8154 33.9689 14.9804V19.3848" stroke="black" stroke-width="2" stroke-miterlimit="10"/>
<path d="M1 6.71143L7.07075 11.2295" stroke="black" stroke-width="2" stroke-miterlimit="10"/>
<path d="M17.1887 1L6.23019 12.0251" stroke="black" stroke-width="2" stroke-miterlimit="10"/>
</svg>
