<svg width="18" height="18" viewBox="0 0 18 18" fill="none" xmlns="http://www.w3.org/2000/svg">
<path d="M18.0002 9.2025C18.0002 8.61 17.9465 8.0475 17.8546 7.5H9.19556V10.8825H14.1534C13.9312 11.9925 13.2798 12.93 12.3143 13.5675V15.8175H15.2722C17.004 14.25 18.0002 11.94 18.0002 9.2025Z" fill="#4285F4"/>
<path d="M9.19567 18C11.6784 18 13.7551 17.19 15.2723 15.8175L12.3144 13.5675C11.4869 14.1075 10.437 14.4375 9.19567 14.4375C6.7972 14.4375 4.76655 12.855 4.03858 10.7175H0.98877V13.035C2.49835 15.975 5.6018 18 9.19567 18Z" fill="#34A853"/>
<path d="M4.03831 10.7176C3.84674 10.1776 3.74713 9.60009 3.74713 9.00009C3.74713 8.40009 3.85441 7.82259 4.03831 7.28259V4.96509H0.988506C0.360153 6.18009 0 7.54509 0 9.00009C0 10.4551 0.360153 11.8201 0.988506 13.0351L4.03831 10.7176Z" fill="#FBBC05"/>
<path d="M9.19567 3.5625C10.552 3.5625 11.7627 4.02 12.7206 4.9125L15.3413 2.3475C13.7551 0.8925 11.6784 0 9.19567 0C5.6018 0 2.49835 2.025 0.98877 4.965L4.03858 7.2825C4.76655 5.145 6.7972 3.5625 9.19567 3.5625Z" fill="#EA4335"/>
</svg>
