<svg width="18" height="18" viewBox="0 0 18 18" fill="none" xmlns="http://www.w3.org/2000/svg">
<path d="M9.00294 0C5.24552 0 4.14662 0.00387619 3.93301 0.0215959C3.16193 0.0856916 2.68211 0.2071 2.15938 0.467358C1.75653 0.667398 1.43882 0.899277 1.12527 1.22432C0.554219 1.8171 0.20813 2.54638 0.082846 3.41327C0.0219343 3.83411 0.00421459 3.91994 0.000615269 6.06957C-0.000769086 6.78611 0.000615269 7.72913 0.000615269 8.99402C0.000615269 12.7484 0.00476834 13.8462 0.022765 14.0594C0.0850609 14.8097 0.202731 15.2818 0.451915 15.7981C0.928133 16.7866 1.83765 17.5286 2.90915 17.8054C3.28015 17.901 3.68992 17.9536 4.21598 17.9785C4.43886 17.9882 6.71058 17.9951 8.9837 17.9951C11.2568 17.9951 13.5299 17.9923 13.7473 17.9813C14.3564 17.9526 14.7101 17.9051 15.1012 17.8041C15.6325 17.6678 16.1276 17.4172 16.552 17.0698C16.9764 16.7224 17.3199 16.2865 17.5584 15.7926C17.8027 15.2887 17.9266 14.7986 17.9827 14.0875C17.9949 13.9324 18 11.4604 18 8.99166C18 6.52253 17.9945 4.05505 17.9823 3.90001C17.9255 3.17737 17.8016 2.69146 17.5494 2.17787C17.3424 1.75744 17.1126 1.44347 16.779 1.12244C16.1837 0.553742 15.4556 0.207653 14.5877 0.0825076C14.1673 0.0217344 14.0835 0.00373776 11.9322 0H9.00294Z" fill="url(#paint0_radial_67_446)"/>
<path d="M9.00294 0C5.24552 0 4.14662 0.00387619 3.93301 0.0215959C3.16193 0.0856916 2.68211 0.2071 2.15938 0.467358C1.75653 0.667398 1.43882 0.899277 1.12527 1.22432C0.554219 1.8171 0.20813 2.54638 0.082846 3.41327C0.0219343 3.83411 0.00421459 3.91994 0.000615269 6.06957C-0.000769086 6.78611 0.000615269 7.72913 0.000615269 8.99402C0.000615269 12.7484 0.00476834 13.8462 0.022765 14.0594C0.0850609 14.8097 0.202731 15.2818 0.451915 15.7981C0.928133 16.7866 1.83765 17.5286 2.90915 17.8054C3.28015 17.901 3.68992 17.9536 4.21598 17.9785C4.43886 17.9882 6.71058 17.9951 8.9837 17.9951C11.2568 17.9951 13.5299 17.9923 13.7473 17.9813C14.3564 17.9526 14.7101 17.9051 15.1012 17.8041C15.6325 17.6678 16.1276 17.4172 16.552 17.0698C16.9764 16.7224 17.3199 16.2865 17.5584 15.7926C17.8027 15.2887 17.9266 14.7986 17.9827 14.0875C17.9949 13.9324 18 11.4604 18 8.99166C18 6.52253 17.9945 4.05505 17.9823 3.90001C17.9255 3.17737 17.8016 2.69146 17.5494 2.17787C17.3424 1.75744 17.1126 1.44347 16.779 1.12244C16.1837 0.553742 15.4556 0.207653 14.5877 0.0825076C14.1673 0.0217344 14.0835 0.00373776 11.9322 0H9.00294Z" fill="url(#paint1_radial_67_446)"/>
<path d="M8.99882 2.35352C7.19418 2.35352 6.9677 2.36141 6.25891 2.39366C5.5515 2.42606 5.06864 2.53805 4.64614 2.70237C4.2091 2.8721 3.83837 3.09913 3.46903 3.46862C3.0994 3.83796 2.87237 4.20869 2.7021 4.6456C2.53736 5.06824 2.42523 5.55124 2.39338 6.25837C2.36182 6.96716 2.35352 7.19378 2.35352 8.99843C2.35352 10.8031 2.36154 11.0289 2.39366 11.7377C2.42619 12.4451 2.53819 12.9279 2.70237 13.3504C2.87223 13.7875 3.09927 14.1582 3.46875 14.5276C3.83796 14.8972 4.20868 15.1248 4.64545 15.2945C5.06823 15.4588 5.55123 15.5708 6.25849 15.6032C6.96728 15.6355 7.19362 15.6433 8.99812 15.6433C10.8029 15.6433 11.0287 15.6355 11.7375 15.6032C12.4449 15.5708 12.9283 15.4588 13.3511 15.2945C13.788 15.1248 14.1582 14.8972 14.5274 14.5276C14.897 14.1582 15.124 13.7875 15.2943 13.3506C15.4576 12.9279 15.5698 12.4449 15.603 11.7378C15.6348 11.029 15.6431 10.8031 15.6431 8.99843C15.6431 7.19378 15.6348 6.9673 15.603 6.25851C15.5698 5.5511 15.4576 5.06824 15.2943 4.64573C15.124 4.20869 14.897 3.83796 14.5274 3.46862C14.1577 3.09899 13.7881 2.87196 13.3507 2.70237C12.9271 2.53805 12.4439 2.42606 11.7365 2.39366C11.0277 2.36141 10.8021 2.35352 8.99688 2.35352H8.99882ZM8.40271 3.55098C8.57963 3.55071 8.77704 3.55098 8.99882 3.55098C10.773 3.55098 10.9833 3.55735 11.6839 3.58919C12.3318 3.61882 12.6834 3.72708 12.9176 3.81803C13.2277 3.93847 13.4488 4.08244 13.6812 4.31501C13.9138 4.54758 14.0578 4.76908 14.1785 5.07918C14.2695 5.31313 14.3779 5.66476 14.4073 6.31264C14.4392 7.01312 14.4461 7.22355 14.4461 8.99691C14.4461 10.7703 14.4392 10.9807 14.4073 11.6812C14.3777 12.3291 14.2695 12.6807 14.1785 12.9146C14.0581 13.2247 13.9138 13.4455 13.6812 13.678C13.4487 13.9105 13.2279 14.0545 12.9176 14.175C12.6837 14.2663 12.3318 14.3743 11.6839 14.4039C10.9834 14.4358 10.773 14.4427 8.99882 14.4427C7.22449 14.4427 7.01421 14.4358 6.31373 14.4039C5.66585 14.374 5.31423 14.2658 5.07986 14.1748C4.76976 14.0544 4.54827 13.9104 4.31569 13.6778C4.08312 13.4453 3.93915 13.2243 3.81844 12.9141C3.72748 12.6801 3.61909 12.3285 3.5896 11.6806C3.55776 10.9801 3.55139 10.7697 3.55139 8.99525C3.55139 7.22078 3.55776 7.01146 3.5896 6.31098C3.61923 5.6631 3.72748 5.31147 3.81844 5.07724C3.93887 4.76714 4.08312 4.54565 4.31569 4.31307C4.54827 4.0805 4.76976 3.93653 5.07986 3.81581C5.31409 3.72444 5.66585 3.61646 6.31373 3.5867C6.92672 3.55901 7.16427 3.55071 8.40271 3.54932V3.55098ZM12.5458 4.65432C12.3881 4.65432 12.2339 4.70109 12.1028 4.78872C11.9716 4.87635 11.8694 5.0009 11.8091 5.14662C11.7487 5.29234 11.733 5.45269 11.7638 5.60737C11.7945 5.76206 11.8705 5.90414 11.9821 6.01565C12.0936 6.12715 12.2357 6.20307 12.3904 6.23381C12.5451 6.26455 12.7054 6.24872 12.8511 6.18832C12.9968 6.12793 13.1214 6.02568 13.2089 5.89451C13.2965 5.76335 13.3432 5.60915 13.3432 5.45143C13.3432 5.0112 12.986 4.65404 12.5458 4.65404V4.65432ZM8.99882 5.58599C7.1143 5.58599 5.58639 7.11391 5.58639 8.99843C5.58639 10.883 7.1143 12.4102 8.99882 12.4102C10.8833 12.4102 12.4108 10.883 12.4108 8.99843C12.4108 7.11391 10.8832 5.58599 8.99868 5.58599H8.99882ZM8.99882 6.78346C10.222 6.78346 11.2138 7.77507 11.2138 8.99843C11.2138 10.2216 10.222 11.2134 8.99882 11.2134C7.77547 11.2134 6.78385 10.2216 6.78385 8.99843C6.78385 7.77507 7.77547 6.78346 8.99882 6.78346Z" fill="white"/>
<defs>
<radialGradient id="paint0_radial_67_446" cx="0" cy="0" r="1" gradientUnits="userSpaceOnUse" gradientTransform="translate(4.78127 19.3811) rotate(-90) scale(17.8345 16.592)">
<stop stop-color="#FFDD55"/>
<stop offset="0.1" stop-color="#FFDD55"/>
<stop offset="0.5" stop-color="#FF543E"/>
<stop offset="1" stop-color="#C837AB"/>
</radialGradient>
<radialGradient id="paint1_radial_67_446" cx="0" cy="0" r="1" gradientUnits="userSpaceOnUse" gradientTransform="translate(-3.0151 1.29634) rotate(78.6776) scale(7.97216 32.8699)">
<stop stop-color="#3771C8"/>
<stop offset="0.128" stop-color="#3771C8"/>
<stop offset="1" stop-color="#6600FF" stop-opacity="0"/>
</radialGradient>
</defs>
</svg>
