<svg width="18" height="19" viewBox="0 0 18 19" fill="none" xmlns="http://www.w3.org/2000/svg">
<path d="M16.0372 1.64524C15.568 1.24039 13.5395 0.0350251 9.31212 0.0166226C9.31212 0.0166226 4.30738 -0.29622 1.87861 1.79246C0.526228 3.05763 0.0708328 4.93929 0.0202331 7.235C-0.0303665 9.53071 -0.287963 13.9197 4.14178 15.0883C4.14178 15.0883 4.12798 18.3455 4.12338 18.6307C4.12338 18.8286 4.15558 18.9666 4.27978 18.9942C4.36258 19.0172 4.49598 18.9712 4.60638 18.87C5.31477 18.1937 7.58254 15.5989 7.58254 15.5989C10.6277 15.7876 13.0519 15.2171 13.3095 15.1389C13.9259 14.9502 17.247 14.6788 17.8082 10.3772C18.3924 5.93762 17.5966 2.91041 16.0372 1.64524Z" fill="#7360F2"/>
<path d="M11.098 7.25978C11.0511 6.36806 10.5707 5.89874 9.66052 5.85181" stroke="white" stroke-width="0.467256" stroke-linecap="round" stroke-linejoin="round"/>
<path d="M12.3297 7.65091C12.3492 6.81786 12.0874 6.12561 11.5481 5.56633C11.0088 5.00705 10.2585 4.69808 9.29712 4.63159" stroke="white" stroke-width="0.467256" stroke-linecap="round" stroke-linejoin="round"/>
<path d="M13.5881 8.12021C13.5803 6.67704 13.123 5.53893 12.2242 4.70979C11.3254 3.87674 10.2116 3.45826 8.87506 3.45044" stroke="white" stroke-width="0.467256" stroke-linecap="round" stroke-linejoin="round"/>
<path d="M9.71139 10.3106C9.71139 10.3106 10.0475 10.3379 10.2272 10.1228L10.5829 9.70043C10.7548 9.49315 11.1652 9.36017 11.5716 9.57137C11.8725 9.73563 12.1656 9.91554 12.4509 10.1033C12.7205 10.291 13.2676 10.7251 13.2676 10.7251C13.5295 10.9363 13.592 11.2414 13.4122 11.566C13.4122 11.5699 13.4122 11.5738 13.4122 11.5738C13.2168 11.8945 12.9667 12.1878 12.6736 12.4342C12.6697 12.4382 12.6697 12.4382 12.6658 12.4382C12.4118 12.6415 12.1656 12.7549 11.9194 12.7823C11.8842 12.7901 11.8451 12.7901 11.81 12.7901C11.7005 12.7901 11.595 12.7745 11.4895 12.7432L11.4817 12.7315C11.1065 12.6298 10.4734 12.3795 9.42611 11.828C8.81646 11.5151 8.23808 11.1514 7.69488 10.7447C7.42132 10.5413 7.16339 10.3223 6.91719 10.0915L6.88984 10.0681L6.86639 10.0407L6.83903 10.0172C6.83122 10.0094 6.81949 10.0016 6.81168 9.99376C6.56938 9.7591 6.33881 9.5127 6.12387 9.25458C5.694 8.73832 5.31102 8.19078 4.97884 7.61586C4.40046 6.61854 4.13472 6.02016 4.0292 5.66034L4.01748 5.65643C3.98231 5.55865 3.96667 5.45697 3.96667 5.35137C3.96667 5.31617 3.96667 5.28488 3.97449 5.24968C4.00575 5.01502 4.1269 4.78036 4.33793 4.53788C4.33793 4.53396 4.33793 4.53396 4.34184 4.53396C4.60367 4.25628 4.9085 4.01771 5.24849 3.83389C5.2524 3.83389 5.2563 3.82998 5.2563 3.82998C5.60021 3.66181 5.92457 3.72047 6.14341 3.96687C6.14341 3.96687 6.60065 4.48703 6.79995 4.74125C6.99926 5.01111 7.18684 5.2927 7.35879 5.57821C7.58545 5.96149 7.44477 6.35259 7.22201 6.51295L6.7765 6.84929C6.55375 7.02138 6.58111 7.34208 6.58111 7.34208C6.58111 7.34208 7.24155 9.71217 9.71139 10.3106Z" fill="white"/>
</svg>
